<svg width="17" height="16" viewBox="0 0 17 16" fill="none" xmlns="http://www.w3.org/2000/svg">
<g opacity="0.4">
<path d="M6.084 7.50003C7.74086 7.50003 9.08401 6.15688 9.08401 4.50001C9.08401 2.84315 7.74086 1.5 6.084 1.5C4.42714 1.5 3.08398 2.84315 3.08398 4.50001C3.08398 6.15688 4.42714 7.50003 6.084 7.50003Z" stroke="#656565" stroke-width="1.6" stroke-linecap="round" stroke-linejoin="round"/>
<path d="M1.58398 15V13.5C1.58398 12.7044 1.90006 11.9413 2.46267 11.3787C3.02528 10.8161 3.78834 10.5 4.584 10.5H7.58401C8.37966 10.5 9.14273 10.8161 9.70534 11.3787C10.268 11.9413 10.584 12.7044 10.584 13.5V15" stroke="#656565" stroke-width="1.6" stroke-linecap="round" stroke-linejoin="round"/>
<path d="M11.334 7.50001H15.834M13.584 5.25V9.75002" stroke="#656565" stroke-width="1.6" stroke-linecap="round" stroke-linejoin="round"/>
</g>
</svg>
