<svg width="18" height="19" viewBox="0 0 18 19" fill="none" xmlns="http://www.w3.org/2000/svg">
<path d="M11.3311 4.87631L5.42187 10.8151C5.0602 11.1785 4.85702 11.6715 4.85702 12.1855C4.85702 12.6996 5.0602 13.1925 5.42187 13.556C5.78353 13.9195 6.27406 14.1237 6.78553 14.1237C7.297 14.1237 7.78752 13.9195 8.14919 13.556L14.0584 7.61727C14.7817 6.89032 15.1881 5.90437 15.1881 4.87631C15.1881 3.84825 14.7817 2.86229 14.0584 2.13534C13.3351 1.4084 12.354 1 11.3311 1C10.3081 1 9.32708 1.4084 8.60374 2.13534L2.69454 8.0741C1.60954 9.16452 1 10.6434 1 12.1855C1 13.7276 1.60954 15.2066 2.69454 16.297C3.77954 17.3874 5.25111 18 6.78553 18C8.31995 18 9.79152 17.3874 10.8765 16.297L16.7857 10.3582" stroke="#656565" stroke-width="1.8" stroke-linecap="round" stroke-linejoin="round"/>
</svg>
