<svg width="18" height="18" viewBox="0 0 18 18" fill="none" xmlns="http://www.w3.org/2000/svg">
<path d="M11.8027 5.26172H11.8113" stroke="#656565" stroke-width="1.8" stroke-linecap="round" stroke-linejoin="round"/>
<path d="M13.6244 1.61914H4.5173C3.00838 1.61914 1.78516 2.84236 1.78516 4.35128V13.4584C1.78516 14.9673 3.00838 16.1906 4.5173 16.1906H13.6244C15.1334 16.1906 16.3566 14.9673 16.3566 13.4584V4.35128C16.3566 2.84236 15.1334 1.61914 13.6244 1.61914Z" stroke="#656565" stroke-width="1.8" stroke-linecap="round" stroke-linejoin="round"/>
<path d="M1.78516 11.6367L5.42801 7.99385C5.84335 7.59419 6.31449 7.38379 6.79409 7.38379C7.27368 7.38379 7.74482 7.59419 8.16016 7.99385L12.7137 12.5474" stroke="#656565" stroke-width="1.8" stroke-linecap="round" stroke-linejoin="round"/>
<path d="M10.8926 10.7259L11.8033 9.81514C12.2186 9.41548 12.6898 9.20508 13.1694 9.20508C13.649 9.20508 14.1201 9.41548 14.5354 9.81514L16.3569 11.6366" stroke="#656565" stroke-width="1.8" stroke-linecap="round" stroke-linejoin="round"/>
</svg>
