<svg width="25" height="19" viewBox="0 0 25 19" fill="none" xmlns="http://www.w3.org/2000/svg">
<rect width="25" height="19" rx="4" fill="#E04F46"/>
<path d="M6 13.7273V7.72727H7.01136V8.44886H7.07102C7.12405 8.3428 7.19886 8.23011 7.29545 8.1108C7.39205 7.98958 7.52273 7.88636 7.6875 7.80114C7.85227 7.71402 8.0625 7.67045 8.31818 7.67045C8.6553 7.67045 8.95928 7.75663 9.23011 7.92898C9.50284 8.09943 9.71875 8.35227 9.87784 8.6875C10.0388 9.02083 10.1193 9.42992 10.1193 9.91477C10.1193 10.3939 10.0407 10.8011 9.88352 11.1364C9.72633 11.4716 9.51231 11.7273 9.24148 11.9034C8.97064 12.0795 8.66383 12.1676 8.32102 12.1676C8.07102 12.1676 7.86364 12.1259 7.69886 12.0426C7.53409 11.9593 7.40152 11.8589 7.30114 11.7415C7.20265 11.6222 7.12595 11.5095 7.07102 11.4034H7.02841V13.7273H6ZM7.00852 9.90909C7.00852 10.1913 7.0483 10.4384 7.12784 10.6506C7.20928 10.8627 7.32576 11.0284 7.47727 11.1477C7.63068 11.2652 7.81629 11.3239 8.03409 11.3239C8.26136 11.3239 8.4517 11.2633 8.60511 11.142C8.75852 11.0189 8.87405 10.8513 8.9517 10.6392C9.03125 10.4252 9.07102 10.1818 9.07102 9.90909C9.07102 9.63826 9.0322 9.39773 8.95455 9.1875C8.87689 8.97727 8.76136 8.8125 8.60795 8.69318C8.45455 8.57386 8.26326 8.5142 8.03409 8.5142C7.81439 8.5142 7.62784 8.57197 7.47443 8.6875C7.32102 8.80303 7.20455 8.96496 7.125 9.1733C7.04735 9.38163 7.00852 9.62689 7.00852 9.90909Z" fill="white"/>
<path d="M12.6193 12.1676C12.2765 12.1676 11.9697 12.0795 11.6989 11.9034C11.428 11.7273 11.214 11.4716 11.0568 11.1364C10.8996 10.8011 10.821 10.3939 10.821 9.91477C10.821 9.42992 10.9006 9.02083 11.0597 8.6875C11.2206 8.35227 11.4375 8.09943 11.7102 7.92898C11.983 7.75663 12.2869 7.67045 12.6222 7.67045C12.8778 7.67045 13.0881 7.71402 13.2528 7.80114C13.4176 7.88636 13.5483 7.98958 13.6449 8.1108C13.7415 8.23011 13.8163 8.3428 13.8693 8.44886H13.9119V6.27273H14.9432V12.0909H13.9318V11.4034H13.8693C13.8163 11.5095 13.7396 11.6222 13.6392 11.7415C13.5388 11.8589 13.4062 11.9593 13.2415 12.0426C13.0767 12.1259 12.8693 12.1676 12.6193 12.1676ZM12.9062 11.3239C13.1241 11.3239 13.3097 11.2652 13.4631 11.1477C13.6165 11.0284 13.733 10.8627 13.8125 10.6506C13.892 10.4384 13.9318 10.1913 13.9318 9.90909C13.9318 9.62689 13.892 9.38163 13.8125 9.1733C13.7348 8.96496 13.6193 8.80303 13.4659 8.6875C13.3144 8.57197 13.1278 8.5142 12.9062 8.5142C12.6771 8.5142 12.4858 8.57386 12.3324 8.69318C12.179 8.8125 12.0634 8.97727 11.9858 9.1875C11.9081 9.39773 11.8693 9.63826 11.8693 9.90909C11.8693 10.1818 11.9081 10.4252 11.9858 10.6392C12.0653 10.8513 12.1818 11.0189 12.3352 11.142C12.4905 11.2633 12.6809 11.3239 12.9062 11.3239Z" fill="white"/>
<path d="M18.2493 7.72727V8.52273H15.6697V7.72727H18.2493ZM16.3146 12.0909V7.31534C16.3146 7.02178 16.3752 6.77746 16.4964 6.58239C16.6196 6.38731 16.7843 6.24148 16.9908 6.14489C17.1972 6.0483 17.4264 6 17.6783 6C17.8563 6 18.0144 6.0142 18.1527 6.04261C18.291 6.07102 18.3932 6.09659 18.4595 6.11932L18.255 6.91477C18.2114 6.90152 18.1565 6.88826 18.0902 6.875C18.0239 6.85985 17.95 6.85227 17.8686 6.85227C17.6773 6.85227 17.5419 6.89867 17.4624 6.99148C17.3847 7.08239 17.3459 7.21307 17.3459 7.38352V12.0909H16.3146Z" fill="white"/>
</svg>
