<svg width="19" height="20" viewBox="0 0 19 20" fill="none" xmlns="http://www.w3.org/2000/svg">
<path d="M6.24998 2.15137C5.21872 2.57825 4.28162 3.20404 3.49219 3.99304" stroke="#656565" stroke-width="2" stroke-linecap="round" stroke-linejoin="round"/>
<path d="M1.65167 6.75098C1.22342 7.78071 1.00199 8.88465 1 9.99988" stroke="#656565" stroke-width="2" stroke-linecap="round" stroke-linejoin="round"/>
<path d="M1.65234 13.249C2.07922 14.2803 2.70502 15.2174 3.49402 16.0068" stroke="#656565" stroke-width="2" stroke-linecap="round" stroke-linejoin="round"/>
<path d="M6.25195 17.8486C7.28168 18.2769 8.38562 18.4983 9.50086 18.5003" stroke="#656565" stroke-width="2" stroke-linecap="round" stroke-linejoin="round"/>
<path d="M12.748 17.8485C13.7793 17.4216 14.7164 16.7958 15.5058 16.0068" stroke="#656565" stroke-width="2" stroke-linecap="round" stroke-linejoin="round"/>
<path d="M17.3477 13.2489C17.7759 12.2192 17.9973 11.1152 17.9993 10" stroke="#656565" stroke-width="2" stroke-linecap="round" stroke-linejoin="round"/>
<path d="M17.3495 6.75095C16.9226 5.71969 16.2968 4.7826 15.5078 3.99316" stroke="#656565" stroke-width="2" stroke-linecap="round" stroke-linejoin="round"/>
<path d="M12.7489 2.15167C11.7192 1.72342 10.6152 1.50199 9.5 1.5" stroke="#656565" stroke-width="2" stroke-linecap="round" stroke-linejoin="round"/>
<path d="M9.50022 11.8891C10.5434 11.8891 11.3891 11.0434 11.3891 10.0002C11.3891 8.95702 10.5434 8.11133 9.50022 8.11133C8.45702 8.11133 7.61133 8.95702 7.61133 10.0002C7.61133 11.0434 8.45702 11.8891 9.50022 11.8891Z" stroke="#656565" stroke-width="2" stroke-linecap="round" stroke-linejoin="round"/>
</svg>
