<svg width="18" height="18" viewBox="0 0 18 18" fill="none" xmlns="http://www.w3.org/2000/svg">
<path d="M6.3329 8.11111C8.29658 8.11111 9.88845 6.51923 9.88845 4.55556C9.88845 2.59188 8.29658 1 6.3329 1C4.36922 1 2.77734 2.59188 2.77734 4.55556C2.77734 6.51923 4.36922 8.11111 6.3329 8.11111Z" stroke="#656565" stroke-width="2" stroke-linecap="round" stroke-linejoin="round"/>
<path d="M1 17.0003V15.2225C1 14.2796 1.3746 13.3752 2.0414 12.7084C2.70819 12.0416 3.61256 11.667 4.55556 11.667H8.11111C9.0541 11.667 9.95847 12.0416 10.6253 12.7084C11.2921 13.3752 11.6667 14.2796 11.6667 15.2225V17.0003" stroke="#656565" stroke-width="2" stroke-linecap="round" stroke-linejoin="round"/>
<path d="M12.5547 1.11523C13.3195 1.31106 13.9974 1.75586 14.4815 2.37951C14.9656 3.00316 15.2283 3.77019 15.2283 4.55968C15.2283 5.34916 14.9656 6.11619 14.4815 6.73985C13.9974 7.3635 13.3195 7.8083 12.5547 8.00412" stroke="#656565" stroke-width="2" stroke-linecap="round" stroke-linejoin="round"/>
<path d="M17.0007 16.9998V15.222C16.9961 14.4373 16.7321 13.6761 16.2498 13.0571C15.7674 12.438 15.0938 11.996 14.334 11.7998" stroke="#656565" stroke-width="2" stroke-linecap="round" stroke-linejoin="round"/>
</svg>
